<?xml version="1.0" encoding="UTF-8"?>
<svg version="1.1" xmlns="http://www.w3.org/2000/svg" width="259" height="259">
<path d="M0 0 C3.52929579 -0.30512644 5.41860983 -0.38759345 8.4140625 1.609375 C9.14367187 2.31578125 9.87328125 3.0221875 10.625 3.75 C11.35976562 4.44609375 12.09453125 5.1421875 12.8515625 5.859375 C17.21774194 10.20967742 17.21774194 10.20967742 19 12 C20.0725 11.525625 21.145 11.05125 22.25 10.5625 C34.68021939 5.96113809 49.44013616 7.75175935 62 11 C62.36351562 10.54109375 62.72703125 10.0821875 63.1015625 9.609375 C66.35659764 5.63656288 69.37324791 2.40976672 74 0 C77.375 -0.25 77.375 -0.25 80 0 C81.8643205 3.95707553 82.24395882 7.07990563 82.1875 11.4375 C82.18105469 12.52933594 82.17460937 13.62117188 82.16796875 14.74609375 C82 18 82 18 81.37890625 21.26171875 C80.65930211 24.1161313 80.65930211 24.1161313 82.75 26.375 C83.4925 27.24125 84.235 28.1075 85 29 C88.5813943 36.29349642 88.55024787 43.28735238 88.5625 51.3125 C88.59923828 52.56740234 88.63597656 53.82230469 88.67382812 55.11523438 C88.72350559 65.7075734 85.77238942 73.02849599 78.6875 80.875 C72.10968497 86.90466378 64.53614274 89.80804685 56 92 C56.32524658 93.0017627 56.65049316 94.00352539 56.9855957 95.03564453 C58.0783817 98.87560572 58.24356657 102.42689007 58.23046875 106.4296875 C58.23001053 107.10548859 58.22955231 107.78128967 58.2290802 108.47756958 C58.22608302 109.89098897 58.21827382 111.30440582 58.20581055 112.71777344 C58.1873719 114.89009137 58.18530246 117.06198639 58.18554688 119.234375 C58.14770776 129.85229224 58.14770776 129.85229224 57 131 C54.3337397 131.08855161 51.69352886 131.11524673 49.02734375 131.09765625 C48.22970108 131.0962413 47.43205841 131.09482635 46.61024475 131.09336853 C44.05262565 131.08775316 41.49509282 131.07519812 38.9375 131.0625 C37.20768355 131.05748698 35.47786574 131.05292373 33.74804688 131.04882812 C29.49866447 131.03777875 25.24934688 131.02050386 21 131 C21 127.37 21 123.74 21 120 C19.65808594 120.10441406 19.65808594 120.10441406 18.2890625 120.2109375 C9.54800728 120.60232803 3.72129415 119.81267475 -3 114 C-7.64238077 109.20078205 -10.47131308 103.35212884 -13.54296875 97.484375 C-14.83864454 95.27512621 -16.00156786 93.77233665 -17.875 92.0625 C-18.57625 91.381875 -19.2775 90.70125 -20 90 C-20 88.68 -20 87.36 -20 86 C-13.36461636 85.17057705 -13.36461636 85.17057705 -9.8984375 87.27734375 C-6.37295309 90.27876966 -3.58364554 93.45976501 -0.9375 97.25 C1.76964272 100.97502838 4.39173984 103.16900227 9 104 C13.01466606 104.21660055 16.98466052 104.17801998 21 104 C21.12375 102.741875 21.2475 101.48375 21.375 100.1875 C21.69868059 96.89674737 22.06604999 95.90092502 24 93 C22.9275 92.62875 21.855 92.2575 20.75 91.875 C9.13080811 87.4584688 -0.73067874 82.74384143 -6.17578125 71.08984375 C-6.44777344 70.40019531 -6.71976563 69.71054688 -7 69 C-7.35835937 68.13761719 -7.71671875 67.27523437 -8.0859375 66.38671875 C-9.31308329 61.83998629 -9.34092992 57.56468311 -9.3125 52.875 C-9.30831055 51.94228271 -9.30412109 51.00956543 -9.29980469 50.04858398 C-9.16760546 41.95419391 -8.8565121 33.82260852 -3.86328125 27.140625 C-1.51729016 23.18637587 -1.83421413 21.1910992 -2.4375 16.6875 C-3.09663429 10.13492974 -2.63166643 6.00019947 0 0 Z " fill="#505050" transform="translate(117,64)"/>
<path d="M0 0 C7.92 0 15.84 0 24 0 C22.13247996 5.60256012 20.59074334 10.19204822 18.00073242 15.30737305 C17.1291877 17.04043953 17.1291877 17.04043953 16.24003601 18.80851746 C15.77982842 19.71283036 15.77982842 19.71283036 15.31032372 20.63541222 C14.33248657 22.55687914 13.36224288 24.48202506 12.39363098 26.40815735 C10.67976961 29.81322964 8.95942061 33.21497435 7.23687744 36.61566162 C4.49070037 42.03757639 1.75046222 47.46245176 -0.9820919 52.89124489 C-1.92546243 54.76162849 -2.87407787 56.62927827 -3.82319641 58.49674988 C-5.00022653 60.8312075 -6.16064578 63.17412761 -7.30285645 65.52581787 C-8.47070784 67.91649864 -9.66785594 70.25306746 -10.92370605 72.5947876 C-14.2100285 78.97222165 -14.2100285 78.97222165 -14.64820862 85.95603943 C-13.56792728 88.96426281 -12.24039215 91.60961295 -10.6796875 94.3984375 C-10.15891129 95.42535202 -9.63813507 96.45226654 -9.10157776 97.51029968 C-7.40655088 100.8254917 -5.64255978 104.09800284 -3.875 107.375 C-2.69818817 109.64641427 -1.52641308 111.92044494 -0.35961914 114.19702148 C1.96517439 118.71646174 4.31555999 123.22082992 6.69189453 127.71337891 C10.76333992 135.42135301 14.66780043 143.20854394 18.54266357 151.0166626 C19.5449805 153.02735509 20.55877042 155.03182077 21.57666016 157.03466797 C22.46877197 158.79834717 22.46877197 158.79834717 23.37890625 160.59765625 C23.8901001 161.60320557 24.40129395 162.60875488 24.92797852 163.64477539 C26 166 26 166 26 168 C17.75 168 9.5 168 1 168 C-1.2584375 163.235625 -1.2584375 163.235625 -3.5625 158.375 C-10.79329427 143.22222475 -18.35460703 128.23336857 -25.90063477 113.23583984 C-28.21722008 108.62863424 -30.52088642 104.01523967 -32.81091309 99.39477539 C-33.56323542 97.87962709 -34.31906012 96.36620844 -35.07971191 94.85522461 C-35.98595034 93.0508442 -36.8728109 91.23676588 -37.7578125 89.421875 C-38.22590332 88.4740918 -38.69399414 87.52630859 -39.17626953 86.54980469 C-40.66012384 81.9566291 -38.80445792 78.22782742 -36.77832031 74.04711914 C-36.31367371 73.08261337 -35.8490271 72.1181076 -35.37030029 71.12437439 C-34.86138245 70.0843074 -34.3524646 69.04424042 -33.828125 67.97265625 C-33.29648743 66.8761525 -32.76484985 65.77964874 -32.21710205 64.6499176 C-26.12975919 52.13494391 -19.90241156 39.68912646 -13.65985107 27.2510376 C-12.10891584 24.15967524 -10.5604446 21.06707902 -9.01171875 17.97460938 C-6.01011938 11.98191477 -3.00573412 5.99062181 0 0 Z " fill="#2F7AC0" transform="translate(92,43)"/>
<path d="M0 0 C7.92 0 15.84 0 24 0 C29.35917211 9.9276467 34.44285032 19.91058402 39.25878906 30.11108398 C44.65058371 41.47368903 50.32239343 52.69613564 55.98217773 63.92700195 C56.36481781 64.68808762 56.74745789 65.44917328 57.14169312 66.23332214 C57.86265294 67.66718057 58.58530682 69.10018895 59.30996704 70.53218079 C60.22202924 72.34713739 61.11200644 74.17314687 62 76 C62.42788818 76.85706543 62.85577637 77.71413086 63.29663086 78.59716797 C64.83142321 83.84028715 62.5394424 88.41311511 60.18359375 93.07104492 C59.5920752 94.25055222 59.00055664 95.43005951 58.39111328 96.64530945 C57.74000102 97.92374283 57.08879402 99.20212796 56.4375 100.48046875 C55.76469715 101.81604654 55.09267364 103.15201718 54.42138672 104.48835754 C52.64967235 108.01087598 50.86878917 111.52867392 49.08551025 115.04534912 C46.26403724 120.61325681 43.45623393 126.18808517 40.64797974 131.76266861 C39.96756072 133.11309109 39.28679649 134.46333969 38.60568237 135.81341171 C33.2331449 146.46533031 28.03889569 157.18549508 23 168 C14.75 168 6.5 168 -2 168 C2.92861535 156.42989498 8.34773011 145.189791 14.03515625 133.98046875 C14.76986242 132.52949842 15.50451164 131.07849925 16.23910522 129.62747192 C19.28843535 123.60897815 22.3421081 117.59277948 25.41577148 111.58666992 C27.31732523 107.86962484 29.20521039 104.14591349 31.0843792 100.41750526 C31.79733304 99.00950305 32.51541699 97.60408594 33.2387867 96.20140648 C34.24252609 94.25405188 35.22864023 92.29869119 36.21118164 90.34057617 C36.77551407 89.23348801 37.3398465 88.12639984 37.92127991 86.98576355 C39.48529858 82.65675366 38.62323286 80.43657206 36.83935547 76.32467651 C36.11063232 74.88174728 36.11063232 74.88174728 35.3671875 73.40966797 C34.81571045 72.31016815 34.2642334 71.21066833 33.69604492 70.07785034 C33.0890822 68.88260286 32.48206575 67.68738266 31.875 66.4921875 C31.24721388 65.2447725 30.62002759 63.99705545 29.9934082 62.74905396 C28.3382974 59.45594332 26.67639473 56.16631094 25.01263428 52.87756348 C22.06313673 47.04470141 19.12450086 41.20634987 16.1875 35.3671875 C15.87293854 34.7419091 15.55837708 34.11663071 15.23428345 33.47240448 C11.27646101 25.59978219 7.35493346 17.71171117 3.5625 9.7578125 C3.19084717 8.98315643 2.81919434 8.20850037 2.4362793 7.41036987 C0 2.2455325 0 2.2455325 0 0 Z " fill="#2F7AC0" transform="translate(192,43)"/>
<path d="M0 0 C7.26 0 14.52 0 22 0 C19.7503806 11.248097 19.7503806 11.248097 18.54907227 15.33496094 C18.27499542 16.27557373 18.00091858 17.21618652 17.71853638 18.18530273 C17.27198196 19.69459351 17.27198196 19.69459351 16.81640625 21.234375 C16.49276093 22.34208252 16.1691156 23.44979004 15.83566284 24.59106445 C14.93736411 27.66433697 14.03555973 30.73655693 13.1325798 33.80845642 C11.53885851 39.23625674 9.95612769 44.66728107 8.37238503 50.09799957 C7.93827057 51.58656123 7.50401202 53.07508088 7.06961632 54.56356049 C2.95175393 68.67676028 -1.11219513 82.80522786 -5.1640625 96.9375 C-5.46977488 98.00353706 -5.77548725 99.06957413 -6.09046364 100.16791534 C-8.86603599 109.8469299 -11.64023032 119.52633823 -14.41036987 129.20690918 C-15.87355035 134.32013997 -17.33847876 139.43286699 -18.80459213 144.54525757 C-19.35117091 146.45265913 -19.89701899 148.36027023 -20.44211197 150.26809692 C-21.19084267 152.88855105 -21.94194051 155.50831544 -22.69360352 158.12792969 C-22.91423682 158.90243343 -23.13487013 159.67693718 -23.36218929 160.47491074 C-24.88602701 165.77205402 -24.88602701 165.77205402 -26 168 C-33.59 168 -41.18 168 -49 168 C-43.6766552 148.80545661 -38.13688758 129.68313275 -32.51465607 110.57468033 C-31.31966182 106.51195567 -30.12650578 102.44869114 -28.93310547 98.38549805 C-26.4557705 89.95209898 -23.97619955 81.5193586 -21.49603271 73.08679199 C-20.00559117 68.01923907 -18.51567698 62.95153119 -17.02587891 57.88378906 C-11.35337794 38.58837082 -5.67819537 19.2937433 0 0 Z " fill="#2F7AC0" transform="translate(49,43)"/>
<path d="" fill="#505050" transform="translate(0,0)"/>
<path d="" fill="#505050" transform="translate(0,0)"/>
<path d="" fill="#505050" transform="translate(0,0)"/>
<path d="" fill="#505050" transform="translate(0,0)"/>
</svg>
